<svg preserveAspectRatio="none" width="100%" height="100%" overflow="visible" style="display: block;" viewBox="0 0 16 16" fill="none" xmlns="http://www.w3.org/2000/svg">
<g id="Icon">
<path id="Vector" d="M8.82267 13.5013L14 8.2" stroke="var(--stroke-0, #A3A3A3)" stroke-width="1.33333" stroke-linecap="round" stroke-linejoin="round"/>
<path id="Vector_2" d="M10.6667 4L5.05733 9.724C4.80737 9.97404 4.66695 10.3131 4.66695 10.6667C4.66695 11.0202 4.80737 11.3593 5.05733 11.6093C5.30737 11.8593 5.64645 11.9997 6 11.9997C6.35355 11.9997 6.69263 11.8593 6.94267 11.6093L12.552 5.88533C13.0519 5.38526 13.3328 4.7071 13.3328 4C13.3328 3.2929 13.0519 2.61474 12.552 2.11467C12.0519 1.61474 11.3738 1.3339 10.6667 1.3339C9.95956 1.3339 9.28141 1.61474 8.78133 2.11467L3.17133 7.838C2.42112 8.58821 1.99966 9.60571 1.99966 10.6667C1.99966 11.7276 2.42112 12.7451 3.17133 13.4953C3.92154 14.2455 4.93904 14.667 6 14.667C7.06096 14.667 8.07846 14.2455 8.82867 13.4953" stroke="var(--stroke-0, #A3A3A3)" stroke-width="1.33333" stroke-linecap="round" stroke-linejoin="round"/>
</g>
</svg>
