<svg preserveAspectRatio="none" width="100%" height="100%" overflow="visible" style="display: block;" viewBox="0 0 14 14" fill="none" xmlns="http://www.w3.org/2000/svg">
<g id="Icon">
<path id="Vector" d="M7 11.6667H12.25" stroke="var(--stroke-0, #A3A3A3)" stroke-width="1.16667" stroke-linecap="round" stroke-linejoin="round"/>
<path id="Vector_2" d="M9.55267 2.11283C9.78489 1.88061 10.0998 1.75015 10.4283 1.75015C10.7567 1.75015 11.0716 1.88061 11.3038 2.11283C11.5361 2.34505 11.6665 2.66001 11.6665 2.98842C11.6665 3.31682 11.5361 3.63178 11.3038 3.864L4.298 10.8704C4.15922 11.0092 3.98768 11.1107 3.79925 11.1656L2.12392 11.6544C2.07372 11.6691 2.02051 11.6699 1.96986 11.657C1.91921 11.644 1.87298 11.6176 1.83601 11.5807C1.79904 11.5437 1.77269 11.4975 1.75971 11.4468C1.74673 11.3962 1.74761 11.3429 1.76225 11.2927L2.25108 9.61742C2.30605 9.4292 2.40756 9.25786 2.54625 9.11925L9.55267 2.11283Z" stroke="var(--stroke-0, #A3A3A3)" stroke-width="1.16667" stroke-linecap="round" stroke-linejoin="round"/>
</g>
</svg>
