<svg preserveAspectRatio="none" width="100%" height="100%" overflow="visible" style="display: block;" viewBox="0 0 18 18" fill="none" xmlns="http://www.w3.org/2000/svg">
<g id="Icon">
<path id="Vector" d="M4.5 10.5L5.625 8.325C5.7473 8.08211 5.93334 7.87703 6.16321 7.73171C6.39307 7.58639 6.65812 7.5063 6.93 7.5H15M15 7.5C15.2291 7.4996 15.4553 7.5517 15.6612 7.65231C15.8671 7.75292 16.0472 7.89937 16.1877 8.0804C16.3282 8.26144 16.4253 8.47225 16.4716 8.69666C16.518 8.92108 16.5123 9.15313 16.455 9.375L15.3 13.875C15.2164 14.1987 15.0272 14.4852 14.7622 14.689C14.4972 14.8928 14.1718 15.0023 13.8375 15H3C2.60218 15 2.22064 14.842 1.93934 14.5607C1.65804 14.2794 1.5 13.8978 1.5 13.5V3.75C1.5 3.35218 1.65804 2.97064 1.93934 2.68934C2.22064 2.40804 2.60218 2.25 3 2.25H5.925C6.17586 2.24754 6.42334 2.30804 6.64477 2.42597C6.86621 2.54389 7.05453 2.71547 7.1925 2.925L7.8 3.825C7.93658 4.0324 8.12252 4.20264 8.34113 4.32045C8.55973 4.43826 8.80417 4.49996 9.0525 4.5H13.5C13.8978 4.5 14.2794 4.65804 14.5607 4.93934C14.842 5.22064 15 5.60218 15 6V7.5Z" stroke="var(--stroke-0, #A3A3A3)" stroke-width="1.5" stroke-linecap="round" stroke-linejoin="round"/>
</g>
</svg>
